<svg width="66" height="58" viewBox="0 0 66 58" fill="none" xmlns="http://www.w3.org/2000/svg">
<path id="Vector" d="M33.1312 28.8982C43.4566 28.8982 51.825 22.58 51.825 14.7842C51.825 6.9884 43.4566 0.670166 33.1312 0.670166C22.8058 0.670166 14.4374 6.9884 14.4374 14.7842C14.4374 22.58 22.8058 28.8982 33.1312 28.8982ZM46.2169 32.4267H43.7779C40.5357 33.5514 36.9284 34.191 33.1312 34.191C29.334 34.191 25.7413 33.5514 22.4845 32.4267H20.0455C9.20893 32.4267 0.416992 39.0647 0.416992 47.2464V51.8335C0.416992 54.7555 3.55697 57.1263 7.42717 57.1263H58.8352C62.7054 57.1263 65.8454 54.7555 65.8454 51.8335V47.2464C65.8454 39.0647 57.0534 32.4267 46.2169 32.4267Z" fill="#FC8717"/>
</svg>
