<svg width="50" height="43" viewBox="0 0 50 43" fill="none" xmlns="http://www.w3.org/2000/svg">
<path id="Vector" d="M4.2048 38.3664C4.2048 39.4192 4.75873 40.4289 5.74472 41.1733C6.73072 41.9177 8.06802 42.336 9.46243 42.336H41.0083C42.4027 42.336 43.74 41.9177 44.726 41.1733C45.712 40.4289 46.2659 39.4192 46.2659 38.3664V10.5794H4.2048V38.3664ZM33.9981 17.1954C33.9981 16.8444 34.1827 16.5079 34.5114 16.2597C34.84 16.0116 35.2858 15.8722 35.7506 15.8722C36.2154 15.8722 36.6612 16.0116 36.9899 16.2597C37.3185 16.5079 37.5032 16.8444 37.5032 17.1954V35.72C37.5032 36.0709 37.3185 36.4075 36.9899 36.6556C36.6612 36.9038 36.2154 37.0432 35.7506 37.0432C35.2858 37.0432 34.84 36.9038 34.5114 36.6556C34.1827 36.4075 33.9981 36.0709 33.9981 35.72V17.1954ZM23.4828 17.1954C23.4828 16.8444 23.6674 16.5079 23.9961 16.2597C24.3248 16.0116 24.7705 15.8722 25.2353 15.8722C25.7001 15.8722 26.1459 16.0116 26.4746 16.2597C26.8032 16.5079 26.9879 16.8444 26.9879 17.1954V35.72C26.9879 36.0709 26.8032 36.4075 26.4746 36.6556C26.1459 36.9038 25.7001 37.0432 25.2353 37.0432C24.7705 37.0432 24.3248 36.9038 23.9961 36.6556C23.6674 36.4075 23.4828 36.0709 23.4828 35.72V17.1954ZM12.9675 17.1954C12.9675 16.8444 13.1522 16.5079 13.4808 16.2597C13.8095 16.0116 14.2553 15.8722 14.7201 15.8722C15.1849 15.8722 15.6306 16.0116 15.9593 16.2597C16.288 16.5079 16.4726 16.8444 16.4726 17.1954V35.72C16.4726 36.0709 16.288 36.4075 15.9593 36.6556C15.6306 36.9038 15.1849 37.0432 14.7201 37.0432C14.2553 37.0432 13.8095 36.9038 13.4808 36.6556C13.1522 36.4075 12.9675 36.0709 12.9675 35.72V17.1954ZM48.0184 2.64029H34.8743L33.8447 1.09381C33.6266 0.763192 33.2906 0.485081 32.8746 0.290767C32.4586 0.0964534 31.979 -0.00635393 31.4897 -0.00608902H18.97C18.4819 -0.0075057 18.0031 0.0949183 17.5886 0.289448C17.174 0.483978 16.8404 0.762745 16.626 1.09381L15.5963 2.64029H2.45225C1.98745 2.64029 1.54168 2.7797 1.21302 3.02784C0.88435 3.27599 0.699707 3.61255 0.699707 3.96348L0.699707 6.60986C0.699707 6.96079 0.88435 7.29735 1.21302 7.54549C1.54168 7.79364 1.98745 7.93304 2.45225 7.93304H48.0184C48.4832 7.93304 48.929 7.79364 49.2577 7.54549C49.5863 7.29735 49.771 6.96079 49.771 6.60986V3.96348C49.771 3.61255 49.5863 3.27599 49.2577 3.02784C48.929 2.7797 48.4832 2.64029 48.0184 2.64029Z" fill="#FC8717"/>
</svg>
