<svg width="50" height="44" viewBox="0 0 50 44" fill="none" xmlns="http://www.w3.org/2000/svg">
<path id="Vector" d="M24.9526 0.816895C11.4005 0.816895 0.416992 9.6161 0.416992 20.4757C0.416992 25.1636 2.46802 29.4545 5.88 32.8286C4.68198 37.5921 0.675766 41.8358 0.627845 41.883C0.416992 42.1004 0.359487 42.4218 0.484082 42.7053C0.608677 42.9888 0.877035 43.159 1.18373 43.159C7.53808 43.159 12.3014 40.1534 14.6592 38.301C17.7932 39.4635 21.2723 40.1345 24.9526 40.1345C38.5047 40.1345 49.4883 31.3353 49.4883 20.4757C49.4883 9.6161 38.5047 0.816895 24.9526 0.816895ZM12.6848 23.5001C10.9884 23.5001 9.61786 22.1486 9.61786 20.4757C9.61786 18.8028 10.9884 17.4513 12.6848 17.4513C14.3812 17.4513 15.7518 18.8028 15.7518 20.4757C15.7518 22.1486 14.3812 23.5001 12.6848 23.5001ZM24.9526 23.5001C23.2562 23.5001 21.8857 22.1486 21.8857 20.4757C21.8857 18.8028 23.2562 17.4513 24.9526 17.4513C26.649 17.4513 28.0196 18.8028 28.0196 20.4757C28.0196 22.1486 26.649 23.5001 24.9526 23.5001ZM37.2204 23.5001C35.524 23.5001 34.1535 22.1486 34.1535 20.4757C34.1535 18.8028 35.524 17.4513 37.2204 17.4513C38.9169 17.4513 40.2874 18.8028 40.2874 20.4757C40.2874 22.1486 38.9169 23.5001 37.2204 23.5001Z" fill="#FC8717"/>
</svg>
