<svg width="50" height="43" viewBox="0 0 50 43" fill="none" xmlns="http://www.w3.org/2000/svg">
<path id="Vector" d="M33.9589 21.1649L47.9094 9.12751C49.6213 7.65035 49.6213 5.25538 47.9094 3.77701L44.809 1.10177C43.0971 -0.375394 40.3215 -0.375394 38.6082 1.10177L24.6577 13.1392L10.7072 1.10177C8.99533 -0.375394 6.21973 -0.375394 4.50642 1.10177L1.40601 3.77701C-0.305909 5.25418 -0.305909 7.64915 1.40601 9.12751L15.3565 21.1649L1.40601 33.2023C-0.305909 34.6795 -0.305909 37.0745 1.40601 38.5528L4.50642 41.2281C6.21834 42.7052 8.99533 42.7052 10.7072 41.2281L24.6577 29.1907L38.6082 41.2281C40.3201 42.7052 43.0971 42.7052 44.809 41.2281L47.9094 38.5528C49.6213 37.0757 49.6213 34.6807 47.9094 33.2023L33.9589 21.1649Z" fill="#FC8717"/>
</svg>
